<svg width="18" height="21" viewBox="0 0 18 21" fill="none" xmlns="http://www.w3.org/2000/svg">
<g opacity="0.3">
<path d="M0 8.67856C0 6.01472 2.15759 3.85713 4.82143 3.85713H5.14286C5.85402 3.85713 6.42857 4.43169 6.42857 5.14285C6.42857 5.85401 5.85402 6.42856 5.14286 6.42856H4.82143C3.57991 6.42856 2.57143 7.43704 2.57143 8.67856V8.99999H5.14286C6.56116 8.99999 7.71429 10.1531 7.71429 11.5714V14.1428C7.71429 15.5612 6.56116 16.7143 5.14286 16.7143H2.57143C1.15313 16.7143 0 15.5612 0 14.1428V12.8571V11.5714V8.67856ZM10.2857 8.67856C10.2857 6.01472 12.4433 3.85713 15.1071 3.85713H15.4286C16.1397 3.85713 16.7143 4.43169 16.7143 5.14285C16.7143 5.85401 16.1397 6.42856 15.4286 6.42856H15.1071C13.8656 6.42856 12.8571 7.43704 12.8571 8.67856V8.99999H15.4286C16.8469 8.99999 18 10.1531 18 11.5714V14.1428C18 15.5612 16.8469 16.7143 15.4286 16.7143H12.8571C11.4388 16.7143 10.2857 15.5612 10.2857 14.1428V12.8571V11.5714V8.67856Z" fill="#757575"/>
</g>
</svg>
